<?xml version="1.0" encoding="UTF-8" standalone="no"?><!DOCTYPE svg PUBLIC "-//W3C//DTD SVG 1.1//EN" "http://www.w3.org/Graphics/SVG/1.1/DTD/svg11.dtd"><svg width="100%" height="100%" viewBox="0 0 310 111" version="1.1" xmlns="http://www.w3.org/2000/svg" xmlns:xlink="http://www.w3.org/1999/xlink" xml:space="preserve" xmlns:serif="http://www.serif.com/" style="fill-rule:evenodd;clip-rule:evenodd;stroke-linejoin:round;stroke-miterlimit:2;"><g><path d="M36.24,67.742l-0.893,-0c-4.111,-0 -6.078,-2.267 -6.078,-6.987l-0,-20.109l5.988,-0c0.983,-0 1.519,-0.566 1.519,-1.606l-0,-6.796c-0,-1.04 -0.536,-1.605 -1.519,-1.605l-5.988,-0l-0,-12.178c-0,-1.04 -0.534,-1.606 -1.519,-1.606l-7.414,-0c-0.985,-0 -1.521,0.566 -1.521,1.606l-0,12.178l-4.467,-0c-0.983,-0 -1.519,0.565 -1.519,1.605l-0,6.796c-0,1.04 0.536,1.606 1.519,1.606l4.467,-0l-0,19.922c-0,10.855 5.987,17.653 15.727,17.653l1.698,-0c0.983,-0 1.519,-0.566 1.519,-1.606l-0,-7.269c-0,-1.038 -0.536,-1.604 -1.519,-1.604" style="fill:#29d9c4;fill-rule:nonzero;"/><path d="M59.027,29.505c-1.876,0 -3.753,0.755 -5.271,1.888l0,-18.031c0,-1.04 -0.538,-1.606 -1.608,-1.606l-7.328,0c-1.072,0 -1.611,0.566 -1.611,1.606l0,62.783c0,1.132 0.539,1.698 1.611,1.698l7.328,0c1.07,0 1.608,-0.566 1.608,-1.698l0,-31.251c0,-2.926 1.608,-4.814 4.109,-4.814c2.591,0 4.111,1.888 4.111,4.814l0,31.251c0,1.132 0.625,1.698 1.61,1.698l7.415,0c1.071,0 1.609,-0.566 1.609,-1.698l0,-30.59c0,-9.535 -5.541,-16.05 -13.583,-16.05" style="fill:#29d9c4;fill-rule:nonzero;"/><path d="M89.59,44.894c0,-2.926 1.429,-4.814 4.2,-4.814c2.681,0 4.29,1.793 4.29,5.191c0,2.834 -1.519,4.533 -4.11,4.533l-4.38,0l0,-4.91Zm4.38,14.727c8.755,0 14.653,-5.947 14.653,-14.631c0,-9.254 -6.255,-15.58 -14.833,-15.389c-8.847,0 -14.655,6.231 -14.833,15.481l0,17.844c0,9.63 5.897,15.956 14.564,15.956c8.311,0 14.12,-5.76 14.745,-14.351c0,-1.133 -0.536,-1.7 -1.519,-1.7l-7.505,0c-0.895,0 -1.431,0.474 -1.61,1.607c-0.356,2.453 -1.786,3.963 -4.021,3.963c-2.592,0 -4.021,-1.888 -4.021,-4.814l0,-3.966l4.38,0Z" style="fill:#29d9c4;fill-rule:nonzero;"/><path d="M162.421,44.894c0,-2.926 1.429,-4.814 4.2,-4.814c2.679,0 4.288,1.793 4.288,5.191c0,2.834 -1.517,4.533 -4.108,4.533l-4.38,0l0,-4.91Zm4.38,14.727c8.755,0 14.653,-5.947 14.653,-14.631c0,-9.254 -6.255,-15.58 -14.833,-15.389c-8.846,0 -14.655,6.231 -14.833,15.481l0,17.844c0,9.63 5.897,15.956 14.566,15.956c8.309,0 14.116,-5.76 14.742,-14.351c0,-1.133 -0.535,-1.7 -1.52,-1.7l-7.504,0c-0.894,0 -1.43,0.474 -1.61,1.607c-0.356,2.453 -1.785,3.963 -4.02,3.963c-2.592,0 -4.021,-1.888 -4.021,-4.814l0,-3.966l4.38,0Z" style="fill:#29d9c4;fill-rule:nonzero;"/><path d="M205.939,60.944c0,2.926 -1.607,4.814 -4.288,4.814c-2.683,0 -4.29,-1.888 -4.29,-4.814l0,-16.05c0,-2.926 1.607,-4.814 4.29,-4.814c2.681,0 4.288,1.888 4.288,4.814l0,16.05Zm-4.288,-31.439c-8.937,0 -14.923,6.515 -14.923,15.956l0,14.821c0,9.535 5.897,15.955 13.582,15.955c2.055,0 4.022,-0.659 5.629,-1.982l0,8.214c0,3.022 -1.607,4.815 -4.288,4.815c-2.414,0 -3.931,-1.793 -4.202,-5.098c-0.178,-1.132 -0.714,-1.701 -1.607,-1.701l-7.507,0c-1.071,0 -1.607,0.569 -1.519,1.701c0.536,9.724 6.078,15.671 14.835,15.671c9.203,0 14.833,-6.042 14.833,-15.955l0,-36.441c0,-9.441 -5.988,-15.956 -14.833,-15.956" style="fill:#29d9c4;fill-rule:nonzero;"/><path d="M241.328,63.682c-0,2.832 -1.34,4.625 -3.931,4.625c-2.86,0 -4.467,-1.982 -4.467,-5.191c-0,-2.738 1.607,-4.533 4.555,-4.533l3.843,0l-0,5.099Zm-3.931,-34.177c-8.221,0 -13.761,5.759 -14.476,14.257c-0,1.038 0.534,1.699 1.518,1.699l7.329,0c0.981,0 1.518,-0.283 1.607,-1.229c0.089,-2.358 1.252,-4.152 3.932,-4.152c2.592,0 4.021,1.887 4.021,4.72l-0,4.059l-4.467,0c-8.668,0 -14.566,5.948 -14.566,14.257c-0,9.346 6.076,15.766 15.28,15.766c9.024,0 14.297,-6.137 14.297,-15.294l-0,-18.127c-0,-9.441 -5.718,-15.956 -14.475,-15.956" style="fill:#29d9c4;fill-rule:nonzero;"/><path d="M272.872,29.505c-8.755,0 -14.564,6.515 -14.564,15.956l0,30.684c0,1.132 0.536,1.698 1.519,1.698l7.416,0c0.983,0 1.519,-0.566 1.519,-1.698l0,-31.251c0,-2.926 1.519,-4.91 4.11,-4.91c2.504,0 4.022,1.984 4.022,4.91l0,31.251c0,1.132 0.625,1.698 1.608,1.698l7.415,0c0.985,0 1.521,-0.566 1.521,-1.698l0,-30.684c0,-9.441 -5.809,-15.956 -14.566,-15.956" style="fill:#29d9c4;fill-rule:nonzero;"/><path d="M135.522,61.321c0,3.872 -1.788,6.136 -4.826,6.136l-4.645,0l0,-17.749l4.645,0c3.038,0 4.826,2.36 4.826,6.325l0,5.288Zm-9.471,-34.081c0,-3.399 1.517,-5.572 4.11,-5.572c2.769,0 4.468,2.173 4.468,5.572l0,6.136c0,3.681 -1.61,5.854 -4.29,5.854l-4.288,0l0,-11.99Zm12.753,-16.237c0,0.937 0.132,1.738 0.363,2.427c-2.447,-1.749 -5.472,-2.713 -8.918,-2.713c-9.114,0 -15.37,6.988 -15.37,17.561l0,44.939c0,2.927 2.056,5.003 4.737,5.003l11.347,0c9.474,0 15.905,-6.986 15.905,-17.843l0,-3.964c0,-5.381 -2.143,-9.82 -5.807,-12.746c3.038,-2.643 4.826,-6.702 4.737,-11.613l0,-3.776c0,-4.996 -1.412,-9.177 -3.864,-12.214c0.366,0.089 0.752,0.149 1.173,0.149c2.78,0 4.214,-1.894 4.214,-4.831l0,-4.924l-4.393,0c-2.6,0 -4.124,1.705 -4.124,4.545" style="fill:#29d9c4;fill-rule:nonzero;"/><path d="M286.504,24.609l0.986,-0c0.43,-0 0.751,-0.067 0.966,-0.201c0.215,-0.132 0.323,-0.355 0.323,-0.669c0,-0.266 -0.095,-0.462 -0.284,-0.586c-0.187,-0.124 -0.43,-0.186 -0.729,-0.186l-1.262,-0l0,1.642Zm-0.867,-2.47l2.103,-0c1.271,-0 1.906,0.548 1.906,1.642c0,0.276 -0.037,0.511 -0.111,0.704c-0.075,0.192 -0.178,0.354 -0.31,0.482c-0.131,0.13 -0.282,0.228 -0.452,0.297c-0.171,0.07 -0.353,0.118 -0.547,0.145l1.591,2.553l-1.052,-0l-1.59,-2.525l-0.671,-0l0,2.525l-0.867,-0l0,-5.823Zm5.613,2.911c0,-0.561 -0.1,-1.09 -0.302,-1.587c-0.202,-0.496 -0.474,-0.929 -0.816,-1.296c-0.341,-0.369 -0.745,-0.66 -1.209,-0.876c-0.464,-0.217 -0.961,-0.325 -1.485,-0.325c-0.527,-0 -1.021,0.108 -1.486,0.325c-0.464,0.216 -0.867,0.507 -1.208,0.876c-0.343,0.367 -0.615,0.8 -0.816,1.296c-0.202,0.497 -0.301,1.026 -0.301,1.587c0,0.562 0.099,1.09 0.301,1.587c0.201,0.496 0.473,0.929 0.816,1.298c0.341,0.367 0.744,0.658 1.208,0.875c0.465,0.216 0.959,0.324 1.486,0.324c0.524,-0 1.021,-0.108 1.485,-0.324c0.464,-0.217 0.868,-0.508 1.209,-0.875c0.342,-0.369 0.614,-0.802 0.816,-1.298c0.202,-0.497 0.302,-1.025 0.302,-1.587m-8.571,-0c0,-0.689 0.125,-1.337 0.374,-1.945c0.251,-0.606 0.589,-1.136 1.019,-1.587c0.432,-0.451 0.933,-0.806 1.513,-1.069c0.579,-0.261 1.195,-0.392 1.853,-0.392c0.657,-0 1.276,0.131 1.854,0.392c0.578,0.263 1.083,0.618 1.511,1.069c0.43,0.451 0.77,0.981 1.019,1.587c0.25,0.608 0.374,1.256 0.374,1.945c0,0.69 -0.124,1.338 -0.374,1.945c-0.249,0.608 -0.589,1.136 -1.019,1.587c-0.428,0.451 -0.933,0.807 -1.511,1.07c-0.578,0.262 -1.197,0.393 -1.854,0.393c-0.658,-0 -1.274,-0.131 -1.853,-0.393c-0.58,-0.263 -1.081,-0.619 -1.513,-1.07c-0.43,-0.451 -0.768,-0.979 -1.019,-1.587c-0.249,-0.607 -0.374,-1.255 -0.374,-1.945" style="fill:#29d9c4;fill-rule:nonzero;"/></g></svg>